<svg xmlns="http://www.w3.org/2000/svg" viewBox="0 0 1200 900" role="img" aria-labelledby="t d"><title id="t">لوحة هوية الوسيلة الذكية</title><desc id="d">مرجع بصري لهوية الوسيلة الذكية</desc><rect width="1200" height="900" fill="#F7FAF9"/><g transform="translate(80 90)"><rect width="260" height="260" rx="64" fill="#00B5A9"/><path d="M60 86c0-10 8-18 18-18h34c15 0 25 3 34 10 9-7 19-10 34-10h22c10 0 18 8 18 18v94c0 10-8 18-18 18h-30c-15 0-25 4-34 14-4 5-11 5-15 0-9-10-19-14-34-14H78c-10 0-18-8-18-18V86Z" fill="none" stroke="#fff" stroke-width="16" stroke-linecap="round" stroke-linejoin="round"/><path d="M130 80v116" stroke="#fff" stroke-width="16" stroke-linecap="round"/></g><g font-family="Cairo,Tajawal,Noto Sans Arabic,sans-serif" text-anchor="end" direction="rtl"><text x="1110" y="180" font-size="86" font-weight="800" fill="#123C43">الوسيلة الذكية</text><text x="1110" y="245" font-size="34" fill="#007F78">الوسيلة التفاعلية الأولى في اليمن</text></g><line x1="80" y1="410" x2="1120" y2="410" stroke="#DCE5E4"/><g font-family="Cairo,Tajawal,Noto Sans Arabic,sans-serif"><text x="1120" y="470" text-anchor="end" font-size="30" font-weight="700" fill="#123C43">الألوان الأساسية</text><rect x="780" y="500" width="90" height="90" rx="18" fill="#00B5A9"/><rect x="890" y="500" width="90" height="90" rx="18" fill="#007F78"/><rect x="1000" y="500" width="90" height="90" rx="18" fill="#123C43"/><text x="825" y="625" text-anchor="middle" font-size="18" fill="#1F2937">#00B5A9</text><text x="935" y="625" text-anchor="middle" font-size="18" fill="#1F2937">#007F78</text><text x="1045" y="625" text-anchor="middle" font-size="18" fill="#1F2937">#123C43</text><text x="520" y="470" text-anchor="end" font-size="30" font-weight="700" fill="#123C43">الخطوط</text><text x="120" y="535" font-size="44" font-weight="700" fill="#123C43">Cairo</text><text x="120" y="590" font-size="34" fill="#007F78">Tajawal / Noto Sans Arabic</text><text x="1120" y="720" text-anchor="end" font-size="30" font-weight="700" fill="#123C43">قيم الهوية</text><text x="1120" y="780" text-anchor="end" font-size="28" fill="#1F2937">تعليمي · تفاعلي · ذكي · موثوق</text></g></svg>